#define 83428_tmp_width 16
#define 83428_tmp_height 16
static char 83428_tmp_bits[] = {
   0xF8, 0x00, 0x8E, 0x03, 0x02, 0x02, 0x03, 0x06, 0x01, 0x04, 0x21, 0x04,
   0x01, 0x04, 0x03, 0x06, 0x02, 0x02, 0x8E, 0x07, 0xF8, 0x0E, 0x00, 0x1C,
   0x00, 0x38, 0x00, 0x70, 0x00, 0x60, 0x00, 0x00 };
