#define 85022_tmp_width 16
#define 85022_tmp_height 16
static char 85022_tmp_bits[] = {
   0x80, 0x00, 0x82, 0x20, 0x04, 0x10, 0xE0, 0x03, 0xB0, 0x07, 0x98, 0x0F,
   0x88, 0x0F, 0x8B, 0x6F, 0x88, 0x0F, 0x98, 0x0F, 0xB0, 0x07, 0xE0, 0x03,
   0x04, 0x10, 0x82, 0x20, 0x80, 0x00, 0x00, 0x00 };
