#define 40776728_tmp_width 16
#define 40776728_tmp_height 16
static char 40776728_tmp_bits[] = {
   0x87, 0x87, 0xC3, 0xC3, 0xE1, 0xE1, 0xF0, 0xF0, 0x78, 0x78, 0x3C, 0x3C,
   0x1E, 0x1E, 0x0F, 0x0F, 0x87, 0x87, 0xC3, 0xC3, 0xE1, 0xE1, 0xF0, 0xF0,
   0x78, 0x78, 0x3C, 0x3C, 0x1E, 0x1E, 0x0F, 0x0F };
